HIERARCHY
ROOT base
{
	OFFSET 0.0 0.0 0.0
	CHANNELS 6 Xposition Yposition Zposition Zrotation Yrotation Xrotation
	JOINT root
	{
		OFFSET 0 0 0
		CHANNELS 6 Xposition Yposition Zposition Zrotation Yrotation Xrotation
		JOINT chest
		{
			OFFSET 0 4.72302 0
			CHANNELS 3 Zrotation Yrotation Xrotation
			JOINT neck
			{
				OFFSET 0 4.47788 0
				CHANNELS 3 Zrotation Yrotation Xrotation
				End Site
				{
					OFFSET 0.0 0.0 0.0
				}
			}
			JOINT right_shoulder
			{
				OFFSET -0.481 4.87 3.6622
				CHANNELS 3 Zrotation Yrotation Xrotation
				JOINT right_elbow
				{
					OFFSET 0 -5.49576 0
					CHANNELS 3 Zrotation Yrotation Xrotation
					JOINT right_wrist
					{
						OFFSET 0 -5.17894 0
						CHANNELS 3 Zrotation Yrotation Xrotation
						End Site
						{
							OFFSET 0.0 0.0 0.0
						}
					}
				}
			}
			JOINT left_shoulder
			{
				OFFSET -0.481 4.87 -3.6622
				CHANNELS 3 Zrotation Yrotation Xrotation
				JOINT left_elbow
				{
					OFFSET 0 -5.49576 0
					CHANNELS 3 Zrotation Yrotation Xrotation
					JOINT left_wrist
					{
						OFFSET 0 -5.17894 0
						CHANNELS 3 Zrotation Yrotation Xrotation
						End Site
						{
							OFFSET 0.0 0.0 0.0
						}
					}
				}
			}
		}
		JOINT right_hip
		{
			OFFSET 0 0 1.69774
			CHANNELS 3 Zrotation Yrotation Xrotation
			JOINT right_knee
			{
				OFFSET 0 -8.43092 0
				CHANNELS 3 Zrotation Yrotation Xrotation
				JOINT right_ankle
				{
					OFFSET 0 -8.1974 0
					CHANNELS 3 Zrotation Yrotation Xrotation
					End Site
					{
						OFFSET 0.0 0.0 0.0
					}
				}
			}
		}
		JOINT left_hip
		{
			OFFSET 0 0 -1.69774
			CHANNELS 3 Zrotation Yrotation Xrotation
			JOINT left_knee
			{
				OFFSET 0 -8.43092 0
				CHANNELS 3 Zrotation Yrotation Xrotation
				JOINT left_ankle
				{
					OFFSET 0 -8.1974 0
					CHANNELS 3 Zrotation Yrotation Xrotation
					End Site
					{
						OFFSET 0.0 0.0 0.0
					}
				}
			}
		}
	}
	JOINT red_arrow
	{
		OFFSET 0 0 0
		CHANNELS 3 Zrotation Yrotation Xrotation
		End Site
		{
			OFFSET 0.0 0.0 0.0
		}
	}
	JOINT blue_arrow
	{
		OFFSET 0 0 0
		CHANNELS 3 Zrotation Yrotation Xrotation
		End Site
		{
			OFFSET 0.0 0.0 0.0
		}
	}
}
MOTION
Frames: 16
Frame Time: 0.0333333333333333
-16.6358445227146 0 -1.46353381574154 0 -17.3078186130992 0 0 17.1357103824616 0 17.3470259832565 12.3881529401455 -6.85032535227373 14.579421669248 -1.02069059134405 -2.30319105001869 -13.5169033299919 -7.28970253392014 1.99947454833808 3.62276350674334 0.126009263396523 -6.94913482913713 35.2405078717479 0 0 0 0 0 1.05274109126079 -1.76790747002631 1.73199176129642 19.6227509948531 0 0 0 0 0 -14.8347786857906 7.52871087431738 -0.0733671243633425 0.000743628091370211 0 0 5.50961162377219 0.257823393692833 10.6139274957991 -2.36344156521171 -0.262798409301011 -0.974880237686032 -2.0094297009867 0 0 -13.0323104060308 -0.703139653046529 11.0912256209445 0 0 0 0 0 0
-17.3945811033249 0 -1.75405097901821 0 -16.6358645325897 0 0 16.924650156498 0 16.3392507490274 12.2674254545213 -8.70078559389057 13.192404799562 -0.544851230942985 -1.74404921160156 -13.3462495734347 -7.85385898366152 1.99292983343482 6.30489249444036 -1.62461494981549 -17.8400103158857 33.6884054394705 0 0 0 0 0 2.66353178381291 -8.20654566496139 12.3236456907848 16.225713722465 0 0 0 0 0 -10.8135505204055 5.34318980994848 0.729435016445416 0.00204688688194682 0 0 -2.28552556537281 1.70457214695511 11.6013490541947 1.08962161216929 0.515913674014856 -0.282826971306189 -1.5149132261855 0 0 -16.0770871698179 -1.80945053114902 12.2120391073323 0 0 0 0 0 0
-18.2999187290668 0 -2.05888111591339 0 -16.0042253336686 0 0 16.6783803343773 0 12.9008773597793 11.7066734994315 -11.4586491345853 12.5602265288117 0.721488688206095 -0.697659555546372 -13.6141622272021 -10.0006005244567 1.82708270825364 6.81817087531946 -5.44503814525364 -33.4202989607174 29.448664549928 0 0 0 0 0 -1.03906447089405 -15.2715117089949 31.3392947450662 9.11235173965265 0 0 0 0 0 -4.1200462645421 4.02389147929642 1.87825478218087 0.000875856389053842 0 0 -7.21018894599173 2.79333420753625 12.5507813009462 7.14369375332757 3.01011630459668 0.89882431918008 0.0126981871133865 0 0 -17.3809172635474 -2.2794728078961 13.1041378619242 0 0 0 0 0 0
-19.4387267962098 0 -2.4386703312397 0 -15.4480626660011 0 0 16.3328022360802 0 5.61623535270904 10.5175000446243 -14.7135730728124 12.9540344837517 2.2367855700348 0.0985259426649143 -13.0839344929874 -13.9776722650463 1.57655656428358 6.58722782052268 -12.0573387079603 -54.3841843901418 20.2198836981361 0 0 0 0 0 -13.9405030577657 -16.3728555250086 59.7004956847221 -0.00770741991368978 0 0 0 0 0 7.05549754366441 0.427771953367279 2.39153233659375 0.00256039316861331 0 0 -11.5228581357617 3.27523747083064 13.4853493978215 18.9520299702433 7.19006132045238 1.62428661708421 0.000967702506447012 0 0 -14.6663974441924 -2.35246592356128 12.1704261936608 0 0 0 0 0 0
-20.6481707453728 0 -2.92503336668015 0 -14.8964267599649 0 0 15.8179563045502 0 -3.3613348827284 10.4634493692016 -17.3221419666372 13.237795869244 1.72542249631398 -0.524558709973524 -13.0697030524324 -16.5230608711368 1.79476437852309 8.92671840011365 -20.8740425587505 -80.7055978036346 4.78409373290095 0 0 0 0 0 -27.4791289894223 2.67291959799449 89.9978549084325 -1.06618869543044E-05 0 0 0 0 0 20.0132451727775 -6.20133753023209 0.414192789092253 0.00118498654455264 0 0 -18.1216279299017 -1.67265192760637 14.4321155903817 32.1715853912118 11.8150155881182 0.724669989396239 0.000371374417916148 0 0 -13.2074964852495 -2.41868767504571 12.3064200804339 0 0 0 0 0 0
-21.8248256027698 0 -3.55874615907669 0 -14.2665512997751 0 0 15.2378599643707 0 -10.7110611902907 11.7649819545153 -18.41538742264 11.3652848302676 -0.84833320428207 -2.11263606345333 -13.7306061089507 -16.8965992698899 4.26369082892841 14.217080544889 -34.4478128204452 -101.6784800824 -0.00016857492017116 0 0 0 0 0 -22.3746170627906 26.6444841766411 107.549094849422 -0.000203078717266474 0 0 0 0 0 31.6435491858539 -14.487857299867 -5.83868208254937 -0.0104297372157225 0 0 -19.2878474399883 -1.18189578497802 13.0354472226623 42.673298527758 13.0513908674475 -1.6004977979082 8.17124015932672E-05 0 0 -14.1937507044117 -1.54995733259944 11.5479342015424 0 0 0 0 0 0
-23.1712705135345 0 -4.22648891210556 0 -13.8046226246297 0 0 14.5839839458466 0 -15.7374002507833 8.45249437789275 -18.6165145827486 6.36342413937079 -0.794793678082848 -2.27247809613286 -12.3705288158085 -11.2767196921588 6.41560948982995 21.5519579426798 -49.5306808160564 -109.434353458286 -9.69225694744849E-08 0 0 0 0 0 -5.79964099522737 44.7718967786938 115.111594862204 -0.000686167259432036 0 0 0 0 0 50.5281015960144 -14.3293128143206 -13.2784363740221 -19.0019670540217 0 0 -14.9225840237325 -1.09857376667217 9.68845687796795 59.5595082954463 14.4892926493885 1.68722549659635 -11.5371278053888 0 0 -16.4633751579429 -0.205228267480913 7.8390866263112 0 0 0 0 0 0
-24.3580323934555 0 -4.93194491267204 0 -13.6299773969273 0 0 13.7758207678795 0 -18.4847924268283 3.14741668983458 -18.2641678677015 0.243589353209018 -0.473768239722867 -1.15736069403835 -8.6895389017907 -8.09189911323601 4.4573680454609 17.0358425175603 -60.5484833293466 -93.9285371252999 -2.86206729399142E-08 0 0 0 0 0 14.2836737374747 58.6560582959564 115.502167380002 -9.74803115434263E-08 0 0 0 0 0 68.2343644667564 -8.06474216659115 -18.1101021308292 -43.8357647723591 0 0 -5.95759446095828 -0.550047440000819 5.83265172776968 79.2487022785737 10.6476246000445 8.97016381298427 -35.8040667801657 0 0 -21.7970395884244 1.72820747758934 7.16176945082389 0 0 0 0 0 0
-25.1823351919651 0 -5.62809061408043 0 -13.7590720988815 0 0 12.812102162838 0 -18.8852599265262 -2.32091034975814 -17.5000948088503 -3.73419545696649 0.746819326861649 -0.20097349066673 -5.14503224056667 -6.54375861744632 1.26844204973252 -1.61028421740288 -63.2575946373804 -60.4246663083333 -2.86206729399142E-08 0 0 0 0 0 30.7242428327794 67.9152958855211 111.015544631645 -2.91784150088557E-08 0 0 0 0 0 81.4008712776451 0.107288703643768 -17.814614241553 -67.5815048181771 0 0 2.90493528240912 1.68167153666035 2.46433097718161 92.1231441588455 3.91072193966797 13.7043793717974 -58.3099874727483 0 0 -19.1945773631013 -6.94168561263829 9.95216600770129 0 0 0 0 0 0
-25.5879827082157 0 -6.25365949273109 0 -14.1140051651624 0 0 11.7608001470566 0 -15.6052560845698 -6.49730598618572 -16.7716064117989 -4.09997793233752 1.92229726497939 0.939489367515552 -2.75062889108971 -5.95648504065875 -1.65780263272531 -13.5944291105479 -58.6663329164624 -36.0398606748598 -0.0147494366619388 0 0 0 0 0 39.9312656275235 70.4770131305764 100.059593317383 -0.0498815752048506 0 0 0 0 0 87.5795245280459 4.56858529212394 -14.1291593349491 -86.3397246188358 0 0 9.95392477928541 4.48783546463648 0.262019826486688 94.9039253952108 -1.51308048768102 13.6027058512947 -71.1202121667824 0 0 -10.3611567145596 -9.13149440120013 14.2325307809329 0 0 0 0 0 0
-25.8025933861732 0 -6.85647886693478 0 -14.5973891917658 0 0 10.7998246908188 0 -9.88387380535031 -9.05025289109627 -16.2378807585979 1.59276326637356 1.43902407777478 2.21114855055334 -2.82465004233357 -4.19592309048108 -2.23412461652199 -7.95968882756249 -51.5189145244254 -30.6060747978584 -0.0147534353908523 0 0 0 0 0 41.5136138775836 65.0825554769526 82.7031238664541 -7.50846866360542E-06 0 0 0 0 0 86.2027468576433 4.28880393301018 -9.82937346152348 -93.3238321017948 0 0 15.8909576409219 5.96965043514739 -2.58962894163879 93.7678417808129 -4.418395554046 12.0066439190905 -76.2236612127242 0 0 -5.52988849598474 -3.43691924473371 11.5950558504983 0 0 0 0 0 0
-26.0450456798077 0 -7.47884167432785 0 -15.0164443358395 0 0 10.2052983760834 0 -1.66769501711133 -7.9587184592663 -16.0865288259475 13.6859536637475 0.695205374124982 2.66381607825422 -5.0836950200092 -3.72480959552289 -1.18982082136301 0.593212312678427 -46.7503234958879 -28.551234000208 16.2461445258198 0 0 0 0 0 34.6651091738373 43.9537487004079 55.3377156167363 2.87094878175709 0 0 0 0 0 75.3192411094067 2.50721840153898 -7.38062983384221 -87.3905492226423 0 0 13.8454980660547 6.96625472429852 0.42985797631722 88.2615643197368 -4.39709296207529 9.09668742417419 -77.241557474542 0 0 -7.32037238388395 0.943537953995862 11.2736827250229 0 0 0 0 0 0
-26.3075192898512 0 -8.0267093539238 0 -15.3532016928481 0 0 10.0416463375092 0 15.1056769925273 -6.17904547979384 -17.5118647092644 20.1378628693171 -0.226255945701454 -1.4054245145412 -0.443306130305623 -1.6244888916647 3.84739195114213 18.5469070521853 -24.9667307936299 -24.0333541017376 32.7420827299652 0 0 0 0 0 38.459682158716 11.601034734634 37.6665427314917 12.5350833299247 0 0 0 0 0 57.4007098289112 6.32300117471395 -6.83358296533353 -80.8306579588436 0 0 9.40682635048791 8.20913353438117 23.7126855659531 71.7276512741281 -2.8570915796325 10.03294862773 -75.1414518896815 0 0 -9.36435363529402 3.21988328666781 11.8370619560426 0 0 0 0 0 0
-26.7289969444275 0 -8.65258085131645 0 -15.5731016926424 0 0 10.4961399555206 0 30.1759823531876 -3.61352440778938 -19.2370060586834 24.6341016952915 -4.56874006864192 -5.90608702169525 7.36858341919304 2.33068124036786 4.9201828492281 45.1655218600217 5.01988523325604 -21.8565389262958 48.0953439463459 0 0 0 0 0 47.5667193170595 -15.4392662295035 29.7183825808897 41.3856358981976 0 0 0 0 0 39.2883854014254 6.98965023006627 -5.72195558966771 -71.0636172193196 0 0 2.9763358934929 8.99855082195763 23.5266710721533 52.0160955547064 -1.25018938751557 10.800782466026 -66.1748478491805 0 0 -13.6675385363903 4.76476976190173 12.065723285855 0 0 0 0 0 0
-27.6131819009781 0 -9.57237681746483 0 -15.6468369598453 0 0 11.4690722346306 0 32.9839718059084 -1.17523518666042 -19.8318063094858 41.6752757999253 -15.9133153314623 -8.81975907038267 -0.757817483367912 7.06527984881243 -11.1447675529632 83.0470011344696 41.7852818757166 -21.1055119352339 28.9193283043466 0 0 0 0 0 50.7703894821012 -35.2883517932996 43.6468101233099 51.9395144301071 0 0 0 0 0 35.0981335559113 -4.65103280203406 -10.4439833509362 -60.152219265495 0 0 -17.692644752858 12.3470668570579 13.7128808642784 37.1006274141178 -0.8290963522101 8.69711412333624 -42.6253459684062 0 0 -25.6150975035902 6.47046365420629 12.3173164131441 0 0 0 0 0 0
-28.4839111804962 0 -10.607613837719 0 -16.367100343103 0 0 12.5637966871262 0 46.9061723276363 -9.44497983591953 -19.6672406659724 37.6176433172007 -13.3850081322467 -2.07319211360702 -6.56148655854733 -1.61144622100855 -20.6361643275167 95.1575538547459 72.6474977886102 -46.5789182435006 -0.0150547607920729 0 0 0 0 0 47.3633292268793 -46.1974716507625 68.7979633841906 35.6082725774181 0 0 0 0 0 37.8233986792933 -13.4908117929521 -16.1781633274122 -68.7518099211346 0 0 -20.8582838738009 10.8575633693464 9.27670862777156 14.401173516639 -2.11487446026266 8.69833146585875 -27.5367682427418 0 0 -41.1421390893407 4.23067673940967 0.249049226726388 0 0 0 0 0 0
